<svg fill="none" height="24" viewBox="0 0 24 24" width="24" xmlns="http://www.w3.org/2000/svg"><g stroke="#2a353d" stroke-linejoin="round" stroke-width="1.5"><path d="m14.0737 3.88545c.7452-.80737 1.1178-1.21105 1.5137-1.44652.9553-.56817 2.1317-.58584 3.103-.04661.4025.22348.7865.6158 1.5546 1.40044s1.1522 1.17696 1.3709 1.58817c.5279.99219.5106 2.19386-.0456 3.16977-.2305.40446-.6257.78508-1.416 1.5463l-9.4037 9.0573c-1.49772 1.4426-2.2466 2.1639-3.18254 2.5294-.93594.3656-1.96486.3387-4.0227.2849l-.27998-.0073c-.62647-.0164-.93971-.0246-1.12179-.2313-.18209-.2066-.15723-.5257-.10751-1.1638l.027-.3465c.13993-1.7962.20989-2.6942.56063-3.5015.35073-.8073.95573-1.4627 2.16572-2.7737z"/><path d="m13 4 7 7"/><path d="m14 22h8" stroke-linecap="round"/></g></svg>